<svg width="99" height="69" viewBox="0 0 99 69" fill="none" xmlns="http://www.w3.org/2000/svg">
<path d="M0.5 25.0001C17 24.5001 49.7 31.4 48.5 61C20.5364 70.7793 4.83317 40.9288 0.5 25.0001Z" fill="#1B1B1B"/>
<path d="M0.5 25.0001L0.484855 24.5003C0.331806 24.505 0.18932 24.5795 0.0981912 24.7025C0.00706272 24.8256 -0.0226598 24.9836 0.0175334 25.1313L0.5 25.0001ZM48.5 61L48.6651 61.472L48.9858 61.3598L48.9996 61.0203L48.5 61ZM0.515145 25.4999C8.70622 25.2516 20.9135 26.8438 30.9028 32.154C40.8646 37.4497 48.5908 46.417 48.0004 60.9797L48.9996 61.0203C49.6092 45.983 41.5854 36.7003 31.3722 31.271C21.1865 25.8563 8.79378 24.2485 0.484855 24.5003L0.515145 25.4999ZM0.0175334 25.1313C2.1982 33.1474 7.23953 44.6775 15.2792 52.9882C19.3033 57.1479 24.0931 60.5159 29.6661 62.2188C35.2457 63.9238 41.5794 63.9499 48.6651 61.472L48.3349 60.528C41.4388 62.9397 35.3232 62.9018 29.9583 61.2624C24.5868 59.6211 19.9368 56.3645 15.9979 52.2929C8.11182 44.141 3.13497 32.7814 0.982467 24.8688L0.0175334 25.1313Z" fill="#1B1B1B"/>
<path d="M17.8051 10.0231C33.3552 15.5634 61.3003 33.8929 49.4081 61.0255C19.8031 59.955 16.0429 26.4363 17.8051 10.0231Z" fill="#1B1B1B"/>
<path d="M17.8051 10.0231L17.9729 9.55208C17.8287 9.50069 17.6689 9.51822 17.5392 9.59966C17.4095 9.6811 17.3243 9.81746 17.308 9.9697L17.8051 10.0231ZM49.4081 61.0255L49.39 61.5252L49.7296 61.5375L49.866 61.2262L49.4081 61.0255ZM17.6373 10.4941C25.3568 13.2445 36.1471 19.1709 43.5181 27.753C50.8689 36.3115 54.8009 47.476 48.9501 60.8248L49.866 61.2262C55.9075 47.4424 51.813 35.8759 44.2768 27.1014C36.7608 18.3506 25.8035 12.3421 17.9729 9.55208L17.6373 10.4941ZM17.308 9.9697C16.4212 18.2297 16.9196 30.8038 21.3827 41.4708C23.6165 46.8099 26.8517 51.6903 31.4226 55.3051C35.9988 58.9241 41.8885 61.2539 49.39 61.5252L49.4261 60.5258C42.1252 60.2618 36.443 58.0004 32.0429 54.5207C27.6373 51.0367 24.4917 46.3109 22.3052 41.0848C17.9274 30.6216 17.4269 18.2297 18.3023 10.0765L17.308 9.9697Z" fill="#1B1B1B"/>
<path d="M49.4457 1.0218C39.35 14.0823 25.0023 44.6075 49.6637 61.0214" stroke="#1B1B1B" stroke-linecap="round"/>
<path d="M98.3849 25.0001C81.8849 24.5001 49.1849 31.4 50.3849 61C78.3486 70.7793 94.0518 40.9288 98.3849 25.0001Z" fill="#1B1B1B"/>
<path d="M98.3849 25.0001L98.4001 24.5003C98.5531 24.505 98.6956 24.5795 98.7868 24.7025C98.8779 24.8256 98.9076 24.9836 98.8674 25.1313L98.3849 25.0001ZM50.3849 61L50.2199 61.472L49.8991 61.3598L49.8854 61.0203L50.3849 61ZM98.3698 25.4999C90.1787 25.2516 77.9714 26.8438 67.9821 32.154C58.0203 37.4497 50.2942 46.417 50.8845 60.9797L49.8854 61.0203C49.2757 45.983 57.2996 36.7003 67.5128 31.271C77.6985 25.8563 90.0912 24.2485 98.4001 24.5003L98.3698 25.4999ZM98.8674 25.1313C96.6867 33.1474 91.6454 44.6775 83.6057 52.9882C79.5817 57.1479 74.7919 60.5159 69.2189 62.2188C63.6392 63.9238 57.3055 63.9499 50.2199 61.472L50.55 60.528C57.4462 62.9397 63.5618 62.9018 68.9266 61.2624C74.2982 59.6211 78.9482 56.3645 82.887 52.2929C90.7731 44.141 95.75 32.7814 97.9025 24.8688L98.8674 25.1313Z" fill="#1B1B1B"/>
<path d="M81.0798 10.0231C65.5298 15.5634 37.5847 33.8929 49.4769 61.0255C79.0818 59.955 82.842 26.4363 81.0798 10.0231Z" fill="#1B1B1B"/>
<path d="M81.0798 10.0231L80.912 9.55208C81.0562 9.50069 81.2161 9.51822 81.3457 9.59966C81.4754 9.6811 81.5606 9.81746 81.577 9.9697L81.0798 10.0231ZM49.4769 61.0255L49.4949 61.5252L49.1553 61.5375L49.0189 61.2262L49.4769 61.0255ZM81.2476 10.4941C73.5281 13.2445 62.7378 19.1709 55.3668 27.753C48.016 36.3115 44.084 47.476 49.9348 60.8248L49.0189 61.2262C42.9775 47.4424 47.072 35.8759 54.6082 27.1014C62.1242 18.3506 73.0814 12.3421 80.912 9.55208L81.2476 10.4941ZM81.577 9.9697C82.4638 18.2297 81.9653 30.8038 77.5023 41.4708C75.2684 46.8099 72.0332 51.6903 67.4624 55.3051C62.8861 58.9241 56.9965 61.2539 49.4949 61.5252L49.4588 60.5258C56.7598 60.2618 62.442 58.0004 66.8421 54.5207C71.2476 51.0367 74.3932 46.3109 76.5798 41.0848C80.9576 30.6216 81.4581 18.2297 80.5827 10.0765L81.577 9.9697Z" fill="#1B1B1B"/>
<path d="M49.4393 1.0218C59.535 14.0823 73.8826 44.6075 49.2213 61.0214" stroke="#1B1B1B" stroke-linecap="round"/>
<path d="M49.4425 1.02595C39.3773 14.0495 25.0911 44.426 49.4425 60.873C73.7939 44.426 59.5076 14.0495 49.4425 1.02595Z" fill="#1B1B1B"/>
<path d="M49.4457 1.0218C39.35 14.0823 25.0023 44.6075 49.6637 61.0214M49.4393 1.0218C59.5349 14.0823 73.8826 44.6075 49.2212 61.0214" stroke="#1B1B1B" stroke-linecap="round"/>
<path d="M49.5 61C37.9 60.2 21 65.417 14 68.0837C21.6667 67.2503 39.5 65.6 49.5 66C59.5 65.6 76.8333 67.2503 84.5 68.0837C77.5 65.417 61.1 60.2 49.5 61Z" fill="#1B1B1B" stroke="#1B1B1B" stroke-linecap="round" stroke-linejoin="round"/>
</svg>
