<svg width="144" height="100" viewBox="0 0 144 100" fill="none" xmlns="http://www.w3.org/2000/svg">
<path d="M2 36.3252L1.95453 34.8259C1.49544 34.8399 1.06804 35.0633 0.794661 35.4324C0.521279 35.8015 0.432049 36.2754 0.552512 36.7187L2 36.3252ZM70.652 87.8596L71.1476 89.2754L72.1095 88.9387L72.1508 87.9203L70.652 87.8596ZM26.7507 14.8854L27.2545 13.4726C26.8217 13.3183 26.3421 13.3708 25.953 13.6151C25.5639 13.8594 25.3082 14.2686 25.2592 14.7255L26.7507 14.8854ZM71.9508 87.8961L71.8966 89.3951L72.9157 89.432L73.3248 88.4978L71.9508 87.8961ZM73.1917 2.91686C73.6981 2.26121 73.5771 1.3192 72.9214 0.812833C72.2658 0.306465 71.3238 0.427484 70.8174 1.08314L73.1917 2.91686ZM71.4848 89.1386C72.1742 89.5978 73.1055 89.4112 73.5648 88.7218C74.0241 88.0323 73.8375 87.1011 73.148 86.6418L71.4848 89.1386ZM142 36.3252L143.447 36.7187C143.568 36.2754 143.479 35.8015 143.205 35.4324C142.932 35.0633 142.505 34.8399 142.045 34.8259L142 36.3252ZM73.348 87.8596L71.8492 87.9203L71.8905 88.9387L72.8524 89.2754L73.348 87.8596ZM117.249 14.8854L118.741 14.7255C118.692 14.2686 118.436 13.8594 118.047 13.6151C117.658 13.3708 117.178 13.3183 116.745 13.4726L117.249 14.8854ZM72.0492 87.8961L70.6752 88.4978L71.0843 89.432L72.1034 89.3951L72.0492 87.8961ZM73.1826 1.08314C72.6762 0.427484 71.7342 0.306465 71.0786 0.812833C70.4229 1.3192 70.3019 2.26121 70.8082 2.91686L73.1826 1.08314ZM70.852 86.6418C70.1625 87.1011 69.9759 88.0323 70.4352 88.7218C70.8945 89.4112 71.8258 89.5978 72.5152 89.1386L70.852 86.6418ZM21.3084 98L20.774 96.5984C20.0691 96.8672 19.6734 97.6177 19.8501 98.3512C20.0267 99.0846 20.7206 99.5728 21.4706 99.4912L21.3084 98ZM72.0823 87.8596L71.979 89.3561C72.0478 89.3608 72.1168 89.3608 72.1856 89.3561L72.0823 87.8596ZM72.0823 95.0172L72.0223 96.516C72.0623 96.5176 72.1023 96.5176 72.1423 96.516L72.0823 95.0172ZM122.141 98L121.979 99.4912C122.729 99.5728 123.423 99.0846 123.599 98.3512C123.776 97.6177 123.38 96.8672 122.675 96.5984L122.141 98ZM2.04547 37.8246C13.6681 37.472 30.9819 39.7389 45.1147 47.2584C59.1651 54.7341 69.9826 67.3236 69.1533 87.7989L72.1508 87.9203C73.0378 66.0228 61.3288 52.4872 46.5239 44.61C31.8014 36.7767 13.931 34.4627 1.95453 34.8259L2.04547 37.8246ZM0.552512 36.7187C3.69343 48.2749 10.9543 64.914 22.5734 76.9354C28.3956 82.9592 35.3559 87.868 43.4851 90.3542C51.6342 92.8465 60.8645 92.8747 71.1476 89.2754L70.1565 86.4438C60.4421 89.8441 51.8668 89.7805 44.3625 87.4854C36.8382 85.1842 30.2972 80.6099 24.7305 74.8505C13.5718 63.3054 6.50409 47.1778 3.44749 35.9318L0.552512 36.7187ZM26.2468 16.2983C37.2003 20.2044 52.5022 28.6237 62.9309 40.7765C73.299 52.8588 78.7957 68.5261 70.5768 87.2944L73.3248 88.4978C82.1148 68.4255 76.1316 51.5531 65.2076 38.8229C54.3441 26.1634 38.5415 17.4976 27.2545 13.4726L26.2468 16.2983ZM25.2592 14.7255C23.9819 26.6332 24.6932 44.776 31.1432 60.2056C34.3752 67.9372 39.0726 75.0448 45.7396 80.322C52.4231 85.612 61.0098 89.0011 71.8966 89.3951L72.0051 86.3971C61.7206 86.0249 53.7566 82.8415 47.6016 77.9697C41.4301 73.0848 37.0014 66.4411 33.9111 59.0485C27.7165 44.2298 26.9991 26.6335 28.2421 15.0454L25.2592 14.7255ZM70.8174 1.08314C63.4994 10.5587 54.6138 26.3883 52.0367 42.9138C50.7453 51.1946 51.0288 59.7115 53.9479 67.7011C56.8741 75.7102 62.4162 83.0974 71.4848 89.1386L73.148 86.6418C64.5806 80.9346 59.4609 74.0484 56.7657 66.6716C54.0634 59.2752 53.7661 51.2938 55.0008 43.3761C57.4759 27.5047 66.0704 12.1377 73.1917 2.91686L70.8174 1.08314ZM142.045 34.8259C130.069 34.4627 112.199 36.7767 97.4761 44.61C82.6712 52.4872 70.9622 66.0228 71.8492 87.9203L74.8467 87.7989C74.0174 67.3236 84.8349 54.7341 98.8853 47.2584C113.018 39.7389 130.332 37.472 141.955 37.8246L142.045 34.8259ZM140.553 35.9318C137.496 47.1778 130.428 63.3054 119.27 74.8505C113.703 80.6099 107.162 85.1842 99.6375 87.4854C92.1332 89.7805 83.5579 89.8441 73.8435 86.4438L72.8524 89.2754C83.1355 92.8747 92.3658 92.8465 100.515 90.3542C108.644 87.868 115.604 82.9592 121.427 76.9354C133.046 64.914 140.307 48.2749 143.447 36.7187L140.553 35.9318ZM116.745 13.4726C105.459 17.4976 89.6559 26.1634 78.7924 38.8229C67.8683 51.5531 61.8852 68.4255 70.6752 88.4978L73.4232 87.2944C65.2043 68.5261 70.701 52.8588 81.0691 40.7765C91.4978 28.6237 106.8 20.2044 117.753 16.2983L116.745 13.4726ZM115.758 15.0454C117.001 26.6335 116.284 44.2298 110.089 59.0485C106.999 66.4411 102.57 73.0848 96.3984 77.9697C90.2434 82.8415 82.2794 86.0249 71.9949 86.3971L72.1034 89.3951C82.9902 89.0011 91.5769 85.612 98.2604 80.322C104.927 75.0448 109.625 67.9372 112.857 60.2056C119.307 44.776 120.018 26.6332 118.741 14.7255L115.758 15.0454ZM70.8082 2.91686C77.9296 12.1377 86.5241 27.5047 88.9992 43.3761C90.2339 51.2938 89.9366 59.2752 87.2343 66.6716C84.5391 74.0484 79.4194 80.9346 70.852 86.6418L72.5152 89.1386C81.5838 83.0974 87.1259 75.7102 90.0521 67.7011C92.9712 59.7115 93.2547 51.1946 91.9633 42.9138C89.3862 26.3883 80.5006 10.5587 73.1826 1.08314L70.8082 2.91686ZM21.8428 99.4016C26.7921 97.5145 35.2739 94.7135 44.5712 92.5291C53.8933 90.3388 63.9096 88.7991 71.979 89.3561L72.1856 86.3632C63.6641 85.775 53.2993 87.3967 43.8851 89.6086C34.4461 91.8263 25.8364 94.6682 20.774 96.5984L21.8428 99.4016ZM21.4706 99.4912C32.4506 98.2967 57.8484 95.9485 72.0223 96.516L72.1423 93.5184C57.7112 92.9406 32.0967 95.3175 21.1462 96.5088L21.4706 99.4912ZM122.675 96.5984C117.62 94.671 109.191 91.8288 99.9282 89.6101C90.6896 87.3972 80.5023 85.7748 71.979 86.3632L72.1856 89.3561C80.2532 88.7992 90.0894 90.3383 99.2294 92.5276C108.345 94.711 116.65 97.5116 121.607 99.4016L122.675 96.5984ZM122.303 96.5088C111.357 95.3179 86.4547 92.9406 72.0223 93.5184L72.1423 96.516C86.3148 95.9486 110.995 98.2962 121.979 99.4912L122.303 96.5088Z" fill="#1B1B1B"/>
</svg>
